<svg width="40" height="40" viewBox="0 0 40 40" fill="none" xmlns="http://www.w3.org/2000/svg">
<rect width="40" height="40" rx="20" fill="#003459"/>
<path d="M28.3111 26.4062C27.24 24.5263 25.5674 23.0615 23.5627 22.2477C24.5596 21.4999 25.296 20.4575 25.6676 19.268C26.0392 18.0785 26.0271 16.8023 25.633 15.62C25.2389 14.4378 24.4829 13.4096 23.4719 12.6809C22.461 11.9522 21.2464 11.5602 20.0002 11.5602C18.754 11.5602 17.5394 11.9522 16.5285 12.6809C15.5175 13.4096 14.7615 14.4378 14.3674 15.62C13.9733 16.8023 13.9612 18.0785 14.3328 19.268C14.7043 20.4575 15.4407 21.4999 16.4377 22.2477C14.4329 23.0615 12.7604 24.5263 11.6892 26.4062C11.6229 26.513 11.5786 26.6319 11.5592 26.7561C11.5397 26.8803 11.5454 27.0071 11.5759 27.129C11.6064 27.2509 11.6611 27.3654 11.7368 27.4658C11.8125 27.5661 11.9075 27.6502 12.0164 27.7131C12.1252 27.776 12.2455 27.8163 12.3702 27.8318C12.495 27.8472 12.6215 27.8374 12.7424 27.8029C12.8632 27.7685 12.9759 27.7101 13.0738 27.6312C13.1716 27.5523 13.2526 27.4545 13.3119 27.3437C14.7275 24.8969 17.2275 23.4375 20.0002 23.4375C22.7728 23.4375 25.2728 24.8976 26.6885 27.3437C26.817 27.5504 27.0209 27.699 27.2569 27.7581C27.493 27.8172 27.7428 27.7821 27.9536 27.6604C28.1643 27.5386 28.3194 27.3397 28.3861 27.1057C28.4529 26.8716 28.426 26.6208 28.3111 26.4062ZM15.9377 17.5C15.9377 16.6965 16.1759 15.9111 16.6223 15.243C17.0687 14.5749 17.7032 14.0542 18.4455 13.7467C19.1879 13.4393 20.0047 13.3588 20.7927 13.5156C21.5808 13.6723 22.3047 14.0592 22.8728 14.6274C23.441 15.1955 23.8279 15.9194 23.9846 16.7074C24.1414 17.4955 24.0609 18.3123 23.7534 19.0546C23.446 19.797 22.9253 20.4314 22.2572 20.8778C21.5891 21.3242 20.8037 21.5625 20.0002 21.5625C18.9231 21.5613 17.8905 21.1328 17.1289 20.3712C16.3673 19.6096 15.9389 18.5771 15.9377 17.5Z" fill="white"/>
</svg>
