<svg id="Layer_1" data-name="Layer 1" xmlns="http://www.w3.org/2000/svg" viewBox="0 0 1000 1000"><defs><style>.cls-1{fill:#1e429b;}.cls-2{fill:#cb2026;}.cls-3{fill:#fff;}</style></defs><rect class="cls-1" x="191.01" y="210.25" width="617.98" height="579.5"/><rect class="cls-2" x="565.37" y="590.98" width="191.35" height="9.97"/><path class="cls-3" d="M426.52,536.74c9.16-7.77,12.86-10.08,16.46-10.08a16.7,16.7,0,0,1,8.46,2.78l-3.59,9.15L446.8,538c-5-2.67-7.42-3.6-10.08-3.6-3.13,0-5.8,1.51-10.08,5.68v23.76c0,7.53,1.15,9.16,6.6,9.16h1.39v2.31h-25.5V573h1.16c5.57,0,6.73-1.63,6.73-9.16V538.25c0-6.61-1.39-8-7.54-8h-1.85v-2.32l18.89-1.5Zm179.64-39.52h-2c0,.23-.11.35-.11.58-.35,1.16-.81,1.62-1.86,1.62a13,13,0,0,1-4.4-1A28.88,28.88,0,0,0,587,496.52c-12.4,0-21,8.12-21,19.94a21.75,21.75,0,0,0,5,14.14,32.28,32.28,0,0,0,5.56,5.1c1.74,1.16,5,3.24,10,6.49a73.11,73.11,0,0,1,9,6.6c4.75,3.71,6.49,7,6.49,11.71,0,8.34-6.15,14-15.42,14a18,18,0,0,1-11.47-4c-4.41-3.36-5.91-6.15-7-13.45l-.11-1.5h-2.32v20.86h2.32c.69-2,1.62-3,3-3,.58,0,1.74.47,4.87,1.51,6.37,2,8.58,2.55,12.75,2.55a21.88,21.88,0,0,0,21.9-21.9,20.37,20.37,0,0,0-5.1-13.33c-2.66-3.25-5.79-5.68-11.93-9.51-4.18-2.55-7.19-4.4-8.93-5.56a50.47,50.47,0,0,1-6.49-5,15.4,15.4,0,0,1-5-10.9c0-6.95,5.79-12.28,13.91-12.28a17.79,17.79,0,0,1,10.54,3.59c3.36,2.55,5,5.68,6.49,11.71l.12,1h2.32V497.22Zm-47.63,69.65c-.7,3.13-1.74,4.52-3.36,4.52-2,0-2.55-1.62-2.55-7.07V546.59c0-6.84-.58-9.27-2.32-12.28-2.78-4.76-8.58-7.65-14.95-7.65-8.58,0-15.65,5.68-17.62,14.37l2.32.69.46-1c2.67-6.14,6.73-9.27,12.29-9.27,6.37,0,10.66,4.87,10.66,11.7v3.48c-2,1.16-3.47,1.62-10.54,3.59-11.59,3.25-15.88,7-15.88,13.91s6.14,12.52,13.67,12.52c5,0,7.88-1.62,12.64-6.49,1.73,4.52,4.17,6.49,8.11,6.49,5.33,0,9.27-4.06,9.39-9.74ZM544.39,566c-2.43,3.94-5.91,6-9.74,6-4,0-7.41-4.05-7.41-9,0-5.91,2.55-8.34,11.59-11.35a26.25,26.25,0,0,0,5.56-2.21V566ZM499.3,537.2V537c0-4.17-1.85-6-6.37-6h-2.67a8.15,8.15,0,0,0-5.1,1.62,21.12,21.12,0,0,1,5.34,13.56c0,10.89-8.35,19-19.82,19.24-7.54,1.74-13.45,5.79-13.45,9.15s2.21,4.76,13.22,6.84l11,2.2c10.77,2.21,16.11,6.61,16.11,13.56,0,11-12.87,19.82-29.21,19.82-14.14,0-23.53-5.79-23.53-14.48,0-6,3.13-9.16,15.3-15v-.23c-6.49-1.5-10.2-4.75-10.2-8.92,0-5.8,4.06-9.39,14.95-13.45v-.23c-9.85-2.55-15.06-9-15.06-18.43,0-11.12,8.46-19.24,20.16-19.24,1.62,0,3.48,0,5.68.12,3.13.23,4.29.23,6.72.23h15.19l10.77-1v37.78c0,7.88.93,9,8.12,9.16v2.32H490.38v-2.32h2.43c4.87,0,6.61-1.74,6.61-6.61V537.2Zm-33.61,51.23c-9,2.44-13.9,6.49-13.9,11.24,0,6.84,10.31,12.17,24,12.17,10.54,0,17.85-4.4,17.85-10.78,0-5.33-3.71-7.53-17.51-10.54L467,588.66ZM471,562.82c7.18,0,11.82-6.72,11.82-17.27,0-9.74-4.76-16.23-11.71-16.23-7.18,0-11.82,6.61-11.82,16.46,0,10.08,4.75,17,11.71,17m215.45,4c-.11,5.68-4.05,9.74-9.39,9.74-3.94,0-6.37-1.85-8.11-6.49-4.75,4.87-7.65,6.49-12.63,6.49A14.11,14.11,0,0,1,644.3,570c-3.95,4.41-8.58,6.61-13.68,6.61a13.28,13.28,0,0,1-13.68-13.68V531.18H608V529c6.84-3.82,11.7-9.15,15.76-17.38h2.43v16.46h16.58v3.13H626.21v27c0,10.2,2,13.33,8.58,13.33,3.36,0,5.68-.93,8.35-3.82a12.3,12.3,0,0,1-.7-3.6c0-6.84,4.29-10.66,15.88-13.91,6.95-2,8.46-2.43,10.55-3.59v-3.48c0-6.83-4.29-11.7-10.67-11.7-5.56,0-9.5,3.13-12.28,9.27l-.47,1-2.31-.69c2-8.69,9-14.37,17.61-14.37,6.38,0,12.06,2.89,15,7.65,1.74,3,2.32,5.33,2.32,12.28v17.73c0,5.57.58,7.07,2.55,7.07,1.62,0,2.67-1.5,3.36-4.52ZM670,549.61a44.21,44.21,0,0,1-5.56,2.2c-9,2.89-11.59,5.33-11.59,11.24,0,5,3.36,9,7.42,9,3.71,0,7.3-2.2,9.73-6ZM484.24,663.53V626.21L466.16,628v2.32h2.66c4.41,0,6.38,1.86,6.38,6V666c0,4.87-1.74,6.6-6.61,6.6h-1.16c-5.33,0-6.6-1.62-6.6-9.15V644c0-11-6.38-17.74-16.23-17.74-6,0-11.59,3-17,9.28V626.1l-17.27,1.51v2.31h1.39c5.34.12,6.84,1.63,6.84,7v26.65c0,7.54-1.39,9.16-6.72,9.16H411c-5.56,0-7.77-3.48-7.77-12.28v-48.1c0-8.7,2.32-12.29,7.77-12.29h.93V597.7H384.68V600h.58c5.56,0,7.76,3.48,7.76,12.29v46.47c-5.33,8.35-13.21,12.75-22.25,12.75-6.95,0-13.21-3-16.22-7.76-2.21-3.36-3.13-8.46-3.13-15.77V612.31c0-8.7,2.2-12.29,7.76-12.29h.93V597.7H332.29V600h1c5.56,0,7.65,3.48,7.65,12.29v37.08c0,16.58,10.08,26.89,26.19,26.89,10.2,0,18.31-3.94,25.73-12V675h42.42v-2.32h-1.39c-5.33,0-6.61-1.62-6.61-9.16V640c4.52-6.49,8.69-9.16,13.45-9.16,7.41,0,10.54,3.94,10.54,13.45v19.23c0,7.54-1.16,9.16-6.72,9.16h-1.39V675h49v-2.32c-7-.23-8-1.27-8-9.16m56.67-35.92h-17.5v2.31c.58,0,.93.12,1.16.12,3.48.35,4.87,1.51,4.87,4.17a21.31,21.31,0,0,1-1.51,5.33l-9.15,23.76-10.09-24.22c-1.16-3.25-1.5-4.17-1.5-5.33,0-2.32,1.62-3.59,4.75-3.94v-2.32H488.76v2.32c6,.11,6.72.81,10,8.57l15.53,37.56h2.2L531,638.62l.81-2.32c1.85-4.87,3.71-6.14,9.15-6.61v-2.08Zm113.24,13V626.33h-2.21a2.74,2.74,0,0,1-2.66,1.86,9.87,9.87,0,0,1-1.86-.24l-3.24-1a16.4,16.4,0,0,0-4.75-.7c-7.88,0-14.49,6.15-14.49,13.57,0,5.91,3.59,10.08,11.47,13.44,11,4.75,13.91,7.19,13.91,12.28a8.07,8.07,0,0,1-8.34,8.23c-7.65,0-12.87-4.86-15.3-13.9h-2.32v16.22h2.32c.11-.46.23-.81.23-.93a2.91,2.91,0,0,1,2.78-2.31,7.84,7.84,0,0,1,3.48,1,20.48,20.48,0,0,0,8.58,2.2c8.34,0,15.18-6.6,15.18-14.49a14.75,14.75,0,0,0-4.75-10.77c-2.21-2-3.94-3-10.9-6s-9.5-5.56-9.5-9.74c0-3.94,3.24-6.49,7.88-6.49,6,0,9.27,2.78,11.82,11a8.45,8.45,0,0,1,.35.93h2.32Zm23.41-14.38L659.48,628v2.32h2.66c4.41,0,6.38,1.86,6.38,6V666c0,4.87-1.74,6.6-6.61,6.6h-2.43v2.32h26.08v-2.32c-7.19-.11-8.12-1.15-8.12-9.15V626.21ZM567.45,364.4a98.72,98.72,0,0,0-4.05,28.51c0,39.4,18.19,66.29,50,85.53.93-2.78,1-6.6.58-10.66-2.78-23.3-19.7-31.29-33.73-49.84C565,398,566.41,372.63,567.45,364.4m55.29-62.59c-29,11.24-43.35,41-42.89,68,.58,34.54,33.85,59.11,40.69,81.71,3.36,11,3.12,18.43-1,29.91,3.94,2.31,13,5.21,13,5.21,5.1-8.23,7.07-18.19,7.54-26.89,2.55-45.43-70.35-73.71-34.43-139.89,2.55-4.87,10.2-13.79,17.16-18.08m51.57,82.52c6.26,14.37,14.61,24.92,15.65,46.13,1.27,24-11,45.32-26.66,60.38A98.51,98.51,0,0,0,712.1,476c29.2-18.43,46-42.42,46-77.89,0-3-.23-7.3-.7-13.79h-83.1m-10.54-98.74c-29.91,10-47.64,32-48.91,62.93-1.86,44,42.07,62.7,37.55,105.93-1.28,12.63-7.77,27.24-12.29,34.19a74.87,74.87,0,0,0,14.61,2.09c3.7-4.87,17.27-22.37,18.19-46.13,1.28-32.92-30.48-62.47-35.93-88.32-10.08-47,21.33-67.33,26.78-70.69m89.47,285c-4.64,4.41-9.5,6.15-16.11,6.15-7.88,0-14.6-2.9-19.12-7.65-4.18,5.1-9.16,7.65-14.49,7.65a13.22,13.22,0,0,1-13.68-13.68V531.29h-8.92v-2.2c6.84-3.82,11.71-9.16,15.76-17.38h2.44v16.45h16.57v3.13H699.12v27c0,10.2,2,13.33,8.57,13.33,3.48,0,5.91-1,8.81-4.29a23.93,23.93,0,0,1-5.1-15.07c0-14.25,10.66-25.38,24.11-25.38,10.78,0,20.63,8.58,20.4,18.08v1.62H720.79c.35,9.51,1.51,13.91,5,18.78,3.48,5.21,9,8.57,14.14,8.57,4.41,0,8.58-2.08,13.33-6.83Zm-19.12-41.37c-7.54,0-11.82,4.75-13.1,14.83h25.85c.11-9.39-4.64-14.83-12.75-14.83m-380.5,40.45c-4.87,5-10,7-17,7-14.95,0-25.73-10.2-25.73-24.46a28.05,28.05,0,0,1,.58-5.56c-6.37,0-8.23,3-8.23,12.87v16c-5.1,1.39-14.14,2.43-21.9,2.43-27.36,0-44.86-13.09-44.86-36.39,0-24.11,17.39-42.76,39.64-42.76,4.17,0,7.07.69,12.63,2.2,2,.58,3.37.92,4.06,1a7.37,7.37,0,0,0,2.2.35,4.6,4.6,0,0,0,1.16.11c2.32,0,3.36-.69,4.29-2.55h2.32l.69,22.72h-2c-1.62-6.49-3.59-10.31-7.76-14-5-4.41-11-7.19-17.62-7.19-16.57.12-28.16,14.6-28.16,35.47,0,22.6,13.56,37.32,32,37.32,10,0,13.09-2.55,13.09-10.9v-4.4c0-9.51-2-12.4-8.46-12.4h-3V544h30.6c3.13-10.2,12.05-17.38,22.83-17.38s20.63,8.57,20.4,18.08v1.62h-35c.46,9.5,1.5,13.91,5,18.78,3.48,5.21,9,8.57,14.14,8.57,4.75,0,9-2.43,14.14-7.76Zm-18.89-40.45c-7.54,0-11.82,4.75-13.1,14.83h25.85c0-9.39-4.76-14.83-12.75-14.83m75.68,22.25c0-14.14-11.71-25.15-26.66-25.15-14.37,0-25.61,11-25.61,25.15,0,14.37,11.13,25.15,26.08,25.15s26.19-10.78,26.19-25.15M369.15,551c0-13.56,6-22.26,15.88-22.26,10.54,0,16.46,8.23,16.46,22.37s-6,22.83-16,22.83c-10.2.12-16.34-8.46-16.34-22.94M578.46,670.14c-4.63,4.29-9.38,6-16,6-15,0-25.73-10.2-25.73-24.46s10.66-25.38,24.11-25.38c10.78,0,20.63,8.58,20.4,18.08V646H546.13c.35,9.51,1.5,13.91,5,18.78,3.48,5.21,9,8.58,14.14,8.58,4.41,0,8.46-2.09,13.21-6.73Zm-19-41.38c-7.54,0-11.83,4.76-13.1,14.84h25.85c.11-9.39-4.64-14.84-12.75-14.84m40.21-2.66-18.89,1.51v2.31h1.86c6.14,0,7.53,1.39,7.53,7.88v25.62c0,7.53-1.16,9.15-6.72,9.15h-1.16v2.32h25.26v-2.32h-1.39c-5.33,0-6.6-1.62-6.6-9.15V639.66c4.29-4.17,7-5.68,10.08-5.68,2.67,0,5.1.93,10.08,3.59l1,.58,3.59-9.15a16.62,16.62,0,0,0-8.46-2.79c-3.48,0-7.3,2.32-16.46,10.09V626.1ZM745,627.49v2.32c3.59.23,4.87,1.5,4.87,4.4a14.51,14.51,0,0,1-.93,4.64l-8.46,25-10.66-24.45c-1.16-3.13-1.62-4.18-1.62-5.8,0-2.32,1-3.36,4-3.82v-2.32H701.2V611h-2.43c-4.06,8.23-8.93,13.56-15.76,17.39v2.2h8.92v31.76a13.27,13.27,0,0,0,13.68,13.67c5.33,0,10.31-2.55,14.48-7.65l-1.5-1.74c-3,3.25-5.33,4.29-8.93,4.29-6.6,0-8.57-3.13-8.57-13.33v-27h8.34c5.33.11,7,.35,9.5,5.79l.93,2.21L736,676.28l-5.79,17.27c-2.67,8.12-6.49,11.71-12.4,11.71a10.59,10.59,0,0,1-4.64-1L710,713.14c2.55,1,3.59,1.39,5.56,1.39,3.6,0,6.84-1.74,9.74-5.1,3.36-4.06,4.4-6.49,8.11-17l17.39-51.22c2.66-7.89,5.79-11,10.89-11v-2.32H745Zm11.24,47.29a7.13,7.13,0,0,0,0-14.26,7.13,7.13,0,0,0,0,14.26m0-13.1a5.91,5.91,0,1,1-5.91,5.91,5.94,5.94,0,0,1,5.91-5.91m-3,10h1.28V668.4h.69c.93,0,1.28.35,2.32,2.09l.69,1.16h1.51l-.93-1.51c-.69-1-1.15-1.62-1.73-1.85h0a2.21,2.21,0,0,0,2.2-2.21c0-.81-.7-2-2.55-2h-3.48Zm1.16-4.41v-2.31h2c.81,0,1.39.46,1.39,1.15s-.69,1.16-1.62,1.16Z"/></svg>